<?xml version="1.0" encoding="UTF-8"?>
<svg id="Camada_2" data-name="Camada 2" xmlns="http://www.w3.org/2000/svg" viewBox="0 0 751.89 465.14">
  <g id="Camada_1-2" data-name="Camada 1">
    <g>
      <g>
        <path d="M555.79,305.04c-2.81,5.75-7.81,7.82-13.42,7.3-4.73-.44-9.06-4.39-10.65-9.71-3.12-10.49,1.26-21.47,9.89-22.78,5.17-.79,10.6.75,13.38,5.42,3.44,5.79,3.86,13.49.79,19.76ZM546.72,305.02c4.94-3.55,5.02-17.07-1.59-18.57-2.7-.61-5.42,1.37-6.13,4.45-.85,3.68-.66,7.41.31,11.08.78,2.93,4.45,5.17,7.41,3.04Z"/>
        <path d="M514.95,305.28l-.68,6.9c-2.63-.43-4.42-.37-7-.08l-.75-6.58-14.94-.4c-1.97-1.61-.37-6.24,1.2-8.38l10.22-13.92c2.33-3.17,5.53-4.04,9.77-2.58l-11.92,17.08c-.86,1.23,2.8,2.17,4.45,1.74,2.24-.58,3.07-2.38,1.97-5.75,2.6-.74,4.58-.79,7.1-.35-.05,1.47-.1,4.21.77,5.34,2.36.49,4.27.56,4.42,2.83.17,2.53-.26,4.82-4.61,4.14Z"/>
        <g>
          <path d="M391.12,292.1l-15.4,1.21c-7.16.56-16.49-.11-13.31,5.09.66,1.07,1.84,1.63,3.47,2.05,23.43,6.06,47.67,3.37,68.32-9.37,10.33-6.37,18.95-14.16,28.36-21.68l12.76-10.2c8.66-6.93,22.47-5.73,24.63-.4.38.95.28,2.91-.82,4.21l-16.98,20.08-26.57,26.4c-17.63,13.54-38.49,23.17-59.86,28.58-13.19,3.34-25.97,2.77-38.95,1.37l-15.32-1.66c-16.36-1.77-31.88-5.74-46.3-13.54-22.16-12.55-36.61-34.4-37.86-60.59l-56.04-.12,64.92,70.92c5.53-3.36,11.9-1.61,15.31,2.93s2.72,11.29-1.4,15.02-10.95,4.07-15.17.5-5.6-10.12-2.04-15.5l-60.65-66.18-10.76-12.3,55.14-.02c3.34,0,6.43,1.19,10.05.26.62-5.22.55-10.63-.16-15.11l-67.66.42c-1.89,6.35-6.47,9.51-12.65,8.95-5.09-.46-10.09-5.67-9.96-11.24s4.09-10.57,9.16-11.23c6.24-.81,11.34,2.37,13.35,8.65l67.78.16c1.04-5.58.81-10.49-.37-15.35l-63.18.02.02-68.35,60.93-50.19c1.09-1.42,2.43-1.64,3.61-.76s1.34,2.63-.51,3.81l-59.35,48.88-.04,62.6,59.33-.17-.29-45.77-13.1,10.92c-5.52,4.41-13.48,4.86-18.28-.68-3.88-4.47-4.27-12.8,1.31-17.41l54.88-45.37-.46-55.21,28.43.02.46,32.1,56.91-47.09c6.15-5.09,13.19-4.11,19.1.75l46.71,38.37,17.45-16.91-24.12-19.72-42.21-33.96c-4.75,2.87-10.47,2.62-15.3.06l-20.4,15.49-20.49,16.55c-.97.78-2.16,1.04-2.89.72-.66-.29-1.36-2.64-.45-3.39l40.89-33.61c-.98-5.65-.4-10.96,4.3-14.09,4.16-2.77,9.1-2.7,13.76.44s4.02,9,3.92,13.54c6.22,7.66,14.82,12.79,22.31,18.95l44.01,36.22c3.31-3.47,7.42-5.83,9.41-9.51,1.96-5.39.44-11.9.85-18.23-5.96-1.86-9.36-6.47-8.8-12.35s5.8-10.27,11.33-10.23c6.11.05,10.17,3.75,11.32,9.52,1.19,5.97-2.47,11.33-8.58,13.42l-.73,19.49c-.15,3.99-5.93,6.44-8.67,9.02l-22.56,21.35,12.81,11.13,65.62-65.22c-4.5-8.02-2.55-16.61,3.92-21.86s15.44-4.98,21.47.37c6.28,5.57,7.72,14.3,3.26,21.98-4.96,8.54-16.13,10.1-24.39,4.6-2.22,1.04-3.9,2.46-5.71,4.25l-49.59,49.19c-3.5,3.48-7.28,6.03-9.83,10.24l13.08,10.94,36.55-36.49,16.43-.27c1.95-6.16,6.78-9.61,12.66-8.96s10.21,5.65,10.43,11.6-4.31,10.34-9.53,11.31c-6.37,1.18-11.28-2.35-13.58-8.76l-13.58.03-17.37,17.44,20.55,16.95c1.26,1.04,2.59,1.68,4,1.56,1.28-.11,2.23-1.15,3.38-2.29l13.58-13.53,31.37-.66c2.85-4.47,6.42-9.34,12.54-8.16,5.71,1.11,10.5,5.14,10.68,11.1s-4.07,10.63-9.89,11.81c-6.29,1.29-10.57-2.86-13.24-8.11l-30.48-.23-13.97,14.24,45.28,37.72c5.05-4.02,11.02-3.44,15.36.5,4.06,3.69,4.62,10.22,1.5,14.53-3.69,5.08-9.84,6.42-15.96,2.89l-32.29,32.32-.1,53.81c0,1.04-1.95,1.27-2.59.92-.89-.49-1.57-1.29-1.57-2.96l.02-43.24c-11.15.28-21.49.25-32.75-.45l-.38,19.75-8.92-.25c-5.95,1.01-10.31,3.95-16.74,6.74l-.21-97.1-92.89-76.46-93.21,76.41-.06,112.24c1.53,6.91,4.38,12.53,10.98,14.79,4.72.9,9.71-.84,13.62-3.91,14.17-11.13,31.32-14.76,49.27-12.19l25.22,3.61c14.77,2.11,33.62-5.72,39.09.41s-3.88,18.29-13.28,20.45l-16.4,3.76ZM537.72,30.87c0-4.37-3.54-7.9-7.9-7.9s-7.9,3.54-7.9,7.9,3.54,7.9,7.9,7.9,7.9-3.54,7.9-7.9ZM495.36,142.5l14.72-14.73c-.86-1.63-1.93-2.55-3.06-3.51l-19.89-16.87-7.64,6.93-7.12,8.36c3.87,4.64,8.55,7.46,13.01,11.28l9.99,8.55ZM494.76,219.81l32.94-.24c.09-1.97-.5-5.01.74-6.28l15.87-16.24c5.58-5.71,12.12-10.67,16.33-17.56-.5-3.12-1.58-7.3.04-10.71l-45.65-37.87-15.14,15.12,25.28,21.04c4.72,3.93,5.68,9.81,2.8,15.06-2.21,4.02-6.93,7.95-12.37,6.72-9.97-2.25-13.49-10.9-20.93-13.58l.1,44.52Z"/>
          <path d="M401.25,213.33c-11.54,4.01-16.52,13.91-16.71,25.23l-.3,18.54-20.14-2.94-.1-18.71c-.09-17.15,9.86-33.18,25.68-40.56,11.2,8.86,26.1,9.73,36.31-.33,14.33,7.35,25.59,21.34,25.64,37.9l.1,31.82c-6.26,5.58-11.84,11-19.47,15.38.88-5.99,1.42-11.71-1.44-17.12l.28-24.01c.09-7.64-2.45-15.35-7.87-20.07-5.78-5.03-14.37-7.77-21.98-5.12Z"/>
          <path d="M364.77,204.63c-9.08-7.75-23.51-7.21-32.45,1.52-4.97,4.85-8.18,10.57-8.19,17.89l-.05,30.81-8.06,2.99-15.17,8.79.31-44.13c.14-19.23,13.04-35.5,30.26-43.32,10.92,8.22,24.65,7.94,35.6.39,5.37,2.08,10.24,5.11,14.85,9.52l-9.89,7.73c-2.82,2.2-3.94,5.81-7.22,7.83Z"/>
          <circle cx="349.22" cy="153.78" r="22.95"/>
          <circle cx="407.92" cy="173.82" r="20.09"/>
        </g>
      </g>
      <g>
        <path d="M723.29,464.63c-13.3.48-23.08-6.68-27.1-18.69-6.32-18.92-1.75-42.51,14.33-49.44,14.78-6.38,31.47-.52,37.73,14.54,4.67,11.25,4.81,24.21.59,35.37-4.25,11.22-13.2,17.76-25.55,18.21ZM731.84,414.55c-2.04-4.7-6.83-5.56-11.55-5.16-9.42.8-12.83,19.27-7.85,33.28,1.65,4.64,4.69,6.99,9.3,7.57,12.27,1.52,16.76-20.32,10.1-35.68Z"/>
        <path d="M217.42,463.4l-.78-47.65-23.5,39.33c-.62,1.04-4.18.95-5.14.18l-24.05-39.53-.59,47.74-9.5-.05-.04-67.16,8.65-.17,19.59,32.12,8.45,14.78,27.6-46.84,8.51-.04.12,67.16-9.32.13Z"/>
        <path d="M670.09,435.22c.79,4.76.88,9.58-.17,14.24l-10.11.23-.18,13.96c-5.4-.2-10.24-.14-16.13.96l-.7-14.97-34.94-.2.13-11.55,30.57-42.7h18.48s-28.49,40.05-28.49,40.05l15.17.31.09-13.01,15.63-.02.02,13.05,10.64-.35Z"/>
        <path d="M519.87,463.22l-11.11.2-14.3-21.1-20.69-.14-.03,21.31-9.72-.18-.13-67.32,32.56.22c7.33.05,13.52,4.19,18.35,9.22,7.32,13.7,3.94,28.59-10.5,35l15.58,22.8ZM508.04,424.21l-.09-9.75c-1.81-5.46-6.75-9.55-12.57-9.63l-21.64-.3-.1,29.3,21.96-.41c5.27-.1,10.06-4.25,12.44-9.21Z"/>
        <path d="M141.31,429.83c0,19.51-15.81,35.32-35.32,35.32s-35.32-15.81-35.32-35.32,15.81-35.32,35.32-35.32,35.32,15.81,35.32,35.32ZM131.9,429.75c0-14.29-11.58-25.87-25.87-25.87s-25.87,11.58-25.87,25.87,11.58,25.87,25.87,25.87,25.87-11.58,25.87-25.87Z"/>
        <path d="M58.34,411.12l.02,52.23c-3.42.26-6.46.42-10.35-.25l.44-29.67-38.69.07.46,29.91-10.21-.26v-67.11s10.45-.14,10.45-.14l-.62,28.78h38.26s.22-28.57.22-28.57l9.75-.09c1.07,4.88.27,9.52.28,15.11Z"/>
        <polygon points="286.54 433.39 252.69 433.61 253.77 454.75 292.3 455.03 292.33 463.49 243.07 463.52 243.14 395.94 290.9 395.92 290.65 404.38 253.1 404.36 253.94 424.74 286.43 424.74 286.54 433.39"/>
        <path d="M574.41,433.18l-33.67.42.37,21.23,38.62.14c1.22,2.44,1.08,5.29.36,8.55l-49.01-.03.02-67.57h47.39c.41,2.84.39,5.45.05,8.43l-37.77-.08v20.52s33.32-.08,33.32-.08c.54,2.4.53,4.91.32,8.46Z"/>
        <path d="M439.26,446.9l-35.44-.25c-3.34,4.97-5.04,10.33-7.07,16.14-3.62,1.13-7.54.87-11.06.25l19.72-43.96,9.86-22.87,11.23-.18,5.71,13.04,25.07,54.16-10.72.23-7.29-16.55ZM435,438.07l-13.82-31.78-14.04,32.25,27.86-.47Z"/>
        <path d="M378.9,446.82c2.44,1.72,4.79,3.84,6.04,6.71-6.44,8.11-16.07,10.98-26.2,10.94-21.73-.08-37.61-18.27-34.66-39.93,2.09-15.34,14.12-26.95,29.52-29.05,11.77-1.6,23.15,1.35,31.5,10.06-1.39,3.04-3.86,4.74-6.15,6.72-11.52-11.8-29.92-11.27-39.77,1.38-9.84,12.63-6.06,31.38,8.43,39.05,10.55,5.59,22.8,3.54,31.28-5.89Z"/>
        <path d="M692.2,454.63c.28,6.58-5.18,10.29-11.03,9.94-5.4-.33-9.6-6.1-8.81-11.1,1-6.38,5.99-9.95,12.35-8.91,4.87.8,7.27,4.72,7.5,10.06Z"/>
      </g>
    </g>
  </g>
</svg>